<?xml version="1.0" encoding="UTF-8"?>
<!DOCTYPE svg PUBLIC "-//W3C//DTD SVG 1.1//EN" "http://www.w3.org/Graphics/SVG/1.1/DTD/svg11.dtd">
<svg version="1.1" xmlns="http://www.w3.org/2000/svg" xmlns:xlink="http://www.w3.org/1999/xlink" x="0" y="0" width="40" height="40" viewBox="0, 0, 40, 40">
  <g id="facebook" transform="translate(0, 0)">
    <path d="M40,37.82 C40,39.019 39.022,40 37.826,40 L27.609,40 L27.609,24.523 L32.826,24.523 L33.587,18.529 L27.609,18.529 L27.609,14.714 C27.609,12.97 28.043,11.771 30.543,11.771 L33.696,11.771 L33.696,6.322 C33.152,6.213 31.304,6.104 29.022,6.104 C24.457,6.104 21.304,8.937 21.304,14.06 L21.304,18.529 L16.087,18.529 L16.087,24.523 L21.304,24.523 L21.304,40 L2.174,40 C0.978,40 0,39.019 0,37.82 L0,2.18 C0,0.981 0.978,-0 2.174,-0 L37.717,-0 C38.913,-0 39.891,0.981 39.891,2.18 L39.891,37.82 z" fill="#FFFFFF" id="Logo"/>
  </g>
</svg>
