<?xml version="1.0" encoding="UTF-8"?>
<!DOCTYPE svg PUBLIC "-//W3C//DTD SVG 1.1//EN" "http://www.w3.org/Graphics/SVG/1.1/DTD/svg11.dtd">
<svg version="1.1" xmlns="http://www.w3.org/2000/svg" xmlns:xlink="http://www.w3.org/1999/xlink" x="0" y="0" width="40" height="40" viewBox="0, 0, 40, 40">
  <g id="linkedin" transform="translate(0, 0)">
    <path d="M2.042,14.25 L9.542,14.25 L9.542,38 L2.042,38 z" fill="#FFFFFF" id="I"/>
    <path d="M29.958,13.938 C25.688,13.938 22.979,16.229 22.458,17.896 L22.458,14.146 L14.021,14.146 C14.125,16.125 14.021,37.896 14.021,37.896 L22.458,37.896 L22.458,25.083 C22.458,24.354 22.458,23.625 22.667,23.104 C23.292,21.646 24.438,20.188 26.729,20.188 C29.646,20.188 31,22.375 31,25.604 L31,37.896 L39.542,37.896 L39.542,24.771 C39.438,17.375 35.271,13.938 29.958,13.938 z" fill="#FFFFFF" id="N"/>
    <path d="M5.583,3 C2.771,3 1,4.771 1,7.167 C1,9.458 2.771,11.229 5.479,11.229 L5.583,11.229 C8.396,11.229 10.167,9.458 10.167,7.063 C10.062,4.771 8.396,3 5.583,3 z" fill="#FFFFFF" id="Dot"/>
  </g>
</svg>
