<?xml version="1.0" encoding="UTF-8"?>
<!DOCTYPE svg PUBLIC "-//W3C//DTD SVG 1.1//EN" "http://www.w3.org/Graphics/SVG/1.1/DTD/svg11.dtd">
<svg version="1.1" xmlns="http://www.w3.org/2000/svg" xmlns:xlink="http://www.w3.org/1999/xlink" x="0" y="0" width="40" height="40" viewBox="0, 0, 40, 40">
  <g id="twitter" transform="translate(0, 0)">
    <path d="M38.545,4.231 C36.968,5.176 35.287,5.912 33.395,6.227 C31.924,4.651 29.822,3.6 27.51,3.6 C23.096,3.6 19.417,7.278 19.417,11.903 C19.417,12.533 19.522,13.164 19.627,13.794 C12.901,13.479 7.016,10.116 3.022,5.176 C2.287,6.438 1.971,7.804 1.971,9.38 C1.971,12.218 3.443,14.74 5.545,16.317 C4.178,16.317 3.022,15.896 1.866,15.266 L1.866,15.371 C1.866,19.364 4.599,22.727 8.382,23.463 C7.752,23.673 7.016,23.778 6.28,23.778 C5.755,23.778 5.229,23.778 4.809,23.673 C5.86,26.931 8.803,29.348 12.376,29.454 C9.643,31.661 6.175,33.027 2.392,33.027 C1.761,33.027 1.131,33.027 0.5,32.922 C4.073,35.234 8.277,36.6 12.901,36.6 C27.72,36.6 35.917,23.989 35.917,13.059 C35.917,12.743 35.917,12.323 35.917,12.008 C37.494,10.852 38.86,9.38 39.911,7.699 C38.439,8.329 36.863,8.855 35.287,8.96 C36.653,7.699 37.914,6.122 38.545,4.231 z" fill="#FFFFFF" id="Logo"/>
  </g>
</svg>
